<svg width="516" height="516" viewBox="0 0 516 516" fill="none" xmlns="http://www.w3.org/2000/svg">
<path d="M430.4 484.818H55.4279C24.8669 484.818 0 459.951 0 429.382V55.4357C0 24.8708 24.8669 0 55.4279 0H430.4C460.961 0 485.828 24.8708 485.828 55.4357V429.382C485.828 459.951 460.961 484.818 430.4 484.818Z" fill="#B6D2E0"/>
<path d="M430.4 0L242.916 0V484.818H430.4C460.961 484.818 485.828 459.951 485.828 429.382V55.4357C485.828 24.8669 460.961 0 430.4 0Z" fill="#AAC3CE"/>
<path d="M55.4318 454.579C41.5405 454.579 30.2388 443.274 30.2388 429.382V55.4357C30.2388 41.5404 41.5405 30.2387 55.4318 30.2387H430.4C444.287 30.2387 455.589 41.5444 455.589 55.4357V429.382C455.589 443.278 444.287 454.579 430.4 454.579H55.4318Z" fill="#D6F3FE"/>
<path d="M455.589 55.4357V429.382C455.589 443.281 444.291 454.579 430.4 454.579H242.916V30.2387H430.4C444.291 30.2387 455.589 41.5365 455.589 55.4357Z" fill="#BDECFC"/>
<path d="M485.828 55.4357C485.828 24.8708 460.961 0 430.4 0H55.4279C24.8669 0 0 24.8708 0 55.4357V137.078H485.828V55.4357Z" fill="#B6D2E0"/>
<path d="M485.828 55.4357V137.078H242.916V0H430.4C460.961 0 485.828 24.8669 485.828 55.4357Z" fill="#AAC3CE"/>
<path d="M424.317 76.6048C424.317 84.9514 417.55 91.7222 409.2 91.7222C400.853 91.7222 394.083 84.9514 394.083 76.6048C394.083 68.2543 400.853 61.4835 409.2 61.4835C417.55 61.4835 424.317 68.2543 424.317 76.6048Z" fill="#BDECFC"/>
<path d="M363.852 76.6048C363.852 84.9514 357.081 91.7222 348.734 91.7222C340.384 91.7222 333.617 84.9514 333.617 76.6048C333.617 68.2543 340.384 61.4835 348.734 61.4835C357.081 61.4835 363.852 68.2543 363.852 76.6048Z" fill="#BDECFC"/>
<path d="M303.382 76.6048C303.382 84.9514 296.615 91.7222 288.264 91.7222C279.914 91.7222 273.147 84.9514 273.147 76.6048C273.147 68.2543 279.914 61.4835 288.264 61.4835C296.615 61.4835 303.382 68.2543 303.382 76.6048Z" fill="#BDECFC"/>
<path d="M226.789 211.667H75.5949C67.2444 211.667 60.4775 204.896 60.4775 196.55C60.4775 188.199 67.2444 181.429 75.5949 181.429H226.789C235.135 181.429 241.906 188.199 241.906 196.55C241.906 204.896 235.135 211.667 226.789 211.667Z" fill="#DD5C60"/>
<path d="M166.311 272.145H75.5949C67.2444 272.145 60.4775 265.374 60.4775 257.023C60.4775 248.673 67.2444 241.906 75.5949 241.906H166.311C174.658 241.906 181.429 248.673 181.429 257.023C181.429 265.374 174.662 272.145 166.311 272.145Z" fill="#EEBB2C"/>
<path d="M166.311 332.618H75.5949C67.2444 332.618 60.4775 325.851 60.4775 317.501C60.4775 309.15 67.2444 302.38 75.5949 302.38H166.311C174.658 302.38 181.429 309.15 181.429 317.501C181.429 325.851 174.662 332.618 166.311 332.618Z" fill="#DD5C60"/>
<path d="M166.311 393.096H75.5949C67.2444 393.096 60.4775 386.325 60.4775 377.978C60.4775 369.628 67.2444 362.857 75.5949 362.857H166.311C174.658 362.857 181.429 369.628 181.429 377.978C181.429 386.325 174.662 393.096 166.311 393.096Z" fill="#EEBB2C"/>
<path d="M501.771 437.627L413.943 349.799C403.946 380.018 380.018 403.946 349.799 413.943L437.627 501.771C455.353 519.497 484.044 519.501 501.771 501.771C519.497 484.044 519.501 455.353 501.771 437.627Z" fill="#EEBB2C"/>
<path d="M501.775 501.771C484.044 519.501 455.35 519.501 437.627 501.771L349.795 413.939C364.904 408.94 378.442 400.464 389.457 389.457L501.775 501.771Z" fill="#E79B34"/>
<path d="M318.22 424.054C259.864 424.054 212.386 376.575 212.386 318.22C212.386 259.861 259.864 212.386 318.22 212.386C376.579 212.386 424.053 259.861 424.053 318.22C424.053 376.575 376.579 424.054 318.22 424.054Z" fill="#7280F8"/>
<path d="M243.419 243.419C224.258 262.588 212.382 289.034 212.382 318.216C212.382 376.575 259.868 424.05 318.216 424.05C330.673 424.05 342.651 421.881 353.756 417.9C368.665 412.579 382.038 404.001 393.017 393.013L243.419 243.419Z" fill="#434AF2"/>
<path d="M318.22 393.815C276.538 393.815 242.625 359.902 242.625 318.22C242.625 276.534 276.538 242.625 318.22 242.625C359.906 242.625 393.815 276.534 393.815 318.22C393.815 359.902 359.906 393.815 318.22 393.815Z" fill="#D6F3FE"/>
<path d="M371.648 371.648C357.961 385.335 339.059 393.811 318.216 393.811C276.538 393.811 242.621 359.906 242.621 318.216C242.621 297.381 251.097 278.471 264.788 264.784L371.648 371.648Z" fill="#BDECFC"/>
</svg>
